<mxfile host="app.diagrams.net" modified="2023-05-28T16:12:42.780Z" agent="Mozilla/5.0 (Windows NT 10.0; Win64; x64) AppleWebKit/537.36 (KHTML, like Gecko) Chrome/112.0.0.0 Safari/537.36 OPR/98.0.0.0" etag="5jl566TOpqpYdueuxZRZ" version="21.3.4" type="device">
  <diagram name="Page-1" id="zgwdOapbHfzGz-HTZ2zd">
    <mxGraphModel dx="790" dy="440" grid="1" gridSize="10" guides="1" tooltips="1" connect="1" arrows="1" fold="1" page="1" pageScale="1" pageWidth="827" pageHeight="1169" background="#ffffff" math="0" shadow="0">
      <root>
        <mxCell id="0" />
        <mxCell id="1" parent="0" />
        <mxCell id="wMajJr2laUl4lp2nv1G8-1" value="" style="rounded=0;whiteSpace=wrap;html=1;fillColor=none;strokeColor=#000000;connectable=0;" vertex="1" parent="1">
          <mxGeometry x="280" y="250" width="240" height="240" as="geometry" />
        </mxCell>
        <mxCell id="wMajJr2laUl4lp2nv1G8-2" value="" style="endArrow=classic;html=1;rounded=0;fontColor=#000000;strokeColor=#000000;cloneable=0;" edge="1" parent="1">
          <mxGeometry width="50" height="50" relative="1" as="geometry">
            <mxPoint x="185" y="260" as="sourcePoint" />
            <mxPoint x="280" y="260" as="targetPoint" />
          </mxGeometry>
        </mxCell>
        <mxCell id="wMajJr2laUl4lp2nv1G8-5" value="" style="endArrow=classic;html=1;rounded=0;fontColor=#000000;strokeColor=#000000;cloneable=0;" edge="1" parent="1">
          <mxGeometry width="50" height="50" relative="1" as="geometry">
            <mxPoint x="185" y="290" as="sourcePoint" />
            <mxPoint x="280" y="290" as="targetPoint" />
          </mxGeometry>
        </mxCell>
        <mxCell id="wMajJr2laUl4lp2nv1G8-6" value="" style="endArrow=classic;html=1;rounded=0;fontColor=#000000;strokeColor=#000000;cloneable=0;" edge="1" parent="1">
          <mxGeometry width="50" height="50" relative="1" as="geometry">
            <mxPoint x="185" y="320" as="sourcePoint" />
            <mxPoint x="280" y="320" as="targetPoint" />
          </mxGeometry>
        </mxCell>
        <mxCell id="wMajJr2laUl4lp2nv1G8-7" value="" style="endArrow=classic;html=1;rounded=0;fontColor=#000000;strokeColor=#000000;cloneable=0;" edge="1" parent="1">
          <mxGeometry width="50" height="50" relative="1" as="geometry">
            <mxPoint x="185" y="350" as="sourcePoint" />
            <mxPoint x="280" y="350" as="targetPoint" />
          </mxGeometry>
        </mxCell>
        <mxCell id="wMajJr2laUl4lp2nv1G8-8" value="" style="endArrow=classic;html=1;rounded=0;fontColor=#000000;strokeColor=#000000;cloneable=0;" edge="1" parent="1">
          <mxGeometry width="50" height="50" relative="1" as="geometry">
            <mxPoint x="185" y="380" as="sourcePoint" />
            <mxPoint x="280" y="380" as="targetPoint" />
          </mxGeometry>
        </mxCell>
        <mxCell id="wMajJr2laUl4lp2nv1G8-9" value="" style="endArrow=classic;html=1;rounded=0;fontColor=#000000;strokeColor=#000000;cloneable=0;" edge="1" parent="1">
          <mxGeometry width="50" height="50" relative="1" as="geometry">
            <mxPoint x="185" y="410" as="sourcePoint" />
            <mxPoint x="280" y="410" as="targetPoint" />
          </mxGeometry>
        </mxCell>
        <mxCell id="wMajJr2laUl4lp2nv1G8-10" value="" style="endArrow=classic;html=1;rounded=0;fontColor=#000000;strokeColor=#000000;cloneable=0;" edge="1" parent="1">
          <mxGeometry width="50" height="50" relative="1" as="geometry">
            <mxPoint x="185" y="440" as="sourcePoint" />
            <mxPoint x="280" y="440" as="targetPoint" />
          </mxGeometry>
        </mxCell>
        <mxCell id="wMajJr2laUl4lp2nv1G8-11" value="" style="endArrow=classic;html=1;rounded=0;fontColor=#000000;strokeColor=#000000;cloneable=0;" edge="1" parent="1">
          <mxGeometry width="50" height="50" relative="1" as="geometry">
            <mxPoint x="185" y="470" as="sourcePoint" />
            <mxPoint x="280" y="470" as="targetPoint" />
          </mxGeometry>
        </mxCell>
        <mxCell id="wMajJr2laUl4lp2nv1G8-12" value="&lt;font color=&quot;#000000&quot;&gt;&lt;span style=&quot;font-size: 20px;&quot;&gt;Etaj&lt;/span&gt;&lt;/font&gt;" style="text;html=1;strokeColor=none;fillColor=none;align=center;verticalAlign=middle;whiteSpace=wrap;rounded=0;cloneable=0;" vertex="1" parent="1">
          <mxGeometry x="220" y="230" width="60" height="30" as="geometry" />
        </mxCell>
        <mxCell id="wMajJr2laUl4lp2nv1G8-13" value="&lt;font color=&quot;#000000&quot;&gt;4&lt;/font&gt;" style="text;html=1;strokeColor=none;fillColor=none;align=center;verticalAlign=middle;whiteSpace=wrap;rounded=0;cloneable=0;" vertex="1" parent="1">
          <mxGeometry x="210" y="240" width="20" height="20" as="geometry" />
        </mxCell>
        <mxCell id="wMajJr2laUl4lp2nv1G8-14" value="" style="endArrow=none;html=1;rounded=0;strokeColor=#000000;cloneable=0;" edge="1" parent="1">
          <mxGeometry width="50" height="50" relative="1" as="geometry">
            <mxPoint x="230" y="270" as="sourcePoint" />
            <mxPoint x="210" y="250" as="targetPoint" />
          </mxGeometry>
        </mxCell>
        <mxCell id="wMajJr2laUl4lp2nv1G8-15" value="&lt;font style=&quot;font-size: 13px;&quot; color=&quot;#000000&quot;&gt;Persoana_in_usa&lt;/font&gt;" style="text;html=1;strokeColor=none;fillColor=none;align=center;verticalAlign=middle;whiteSpace=wrap;rounded=0;cloneable=0;" vertex="1" parent="1">
          <mxGeometry x="130" y="260" width="190" height="30" as="geometry" />
        </mxCell>
        <mxCell id="wMajJr2laUl4lp2nv1G8-17" value="&lt;font color=&quot;#000000&quot;&gt;&lt;span style=&quot;font-size: 13px;&quot;&gt;Greutate_depasita&lt;/span&gt;&lt;/font&gt;" style="text;html=1;strokeColor=none;fillColor=none;align=center;verticalAlign=middle;whiteSpace=wrap;rounded=0;cloneable=0;" vertex="1" parent="1">
          <mxGeometry x="125" y="290" width="190" height="30" as="geometry" />
        </mxCell>
        <mxCell id="wMajJr2laUl4lp2nv1G8-19" value="&lt;font color=&quot;#000000&quot;&gt;&lt;span style=&quot;font-size: 13px;&quot;&gt;Cerere_interior&lt;br&gt;&lt;/span&gt;&lt;/font&gt;" style="text;html=1;strokeColor=none;fillColor=none;align=center;verticalAlign=middle;whiteSpace=wrap;rounded=0;cloneable=0;" vertex="1" parent="1">
          <mxGeometry x="130" y="320" width="190" height="30" as="geometry" />
        </mxCell>
        <mxCell id="wMajJr2laUl4lp2nv1G8-20" value="&lt;font color=&quot;#000000&quot;&gt;&lt;span style=&quot;font-size: 13px;&quot;&gt;Cerere_exterior_sus&lt;br&gt;&lt;/span&gt;&lt;/font&gt;" style="text;html=1;strokeColor=none;fillColor=none;align=center;verticalAlign=middle;whiteSpace=wrap;rounded=0;cloneable=0;" vertex="1" parent="1">
          <mxGeometry x="125" y="350" width="190" height="30" as="geometry" />
        </mxCell>
        <mxCell id="wMajJr2laUl4lp2nv1G8-21" value="&lt;font color=&quot;#000000&quot;&gt;&lt;span style=&quot;font-size: 13px;&quot;&gt;Cerere_exterior_jos&lt;br&gt;&lt;/span&gt;&lt;/font&gt;" style="text;html=1;strokeColor=none;fillColor=none;align=center;verticalAlign=middle;whiteSpace=wrap;rounded=0;cloneable=0;" vertex="1" parent="1">
          <mxGeometry x="120" y="380" width="190" height="30" as="geometry" />
        </mxCell>
        <mxCell id="wMajJr2laUl4lp2nv1G8-22" value="&lt;font color=&quot;#000000&quot;&gt;&lt;span style=&quot;font-size: 20px;&quot;&gt;OK&lt;/span&gt;&lt;/font&gt;" style="text;html=1;strokeColor=none;fillColor=none;align=center;verticalAlign=middle;whiteSpace=wrap;rounded=0;cloneable=0;" vertex="1" parent="1">
          <mxGeometry x="195" y="410" width="60" height="30" as="geometry" />
        </mxCell>
        <mxCell id="wMajJr2laUl4lp2nv1G8-23" value="&lt;font color=&quot;#000000&quot;&gt;&lt;span style=&quot;font-size: 20px;&quot;&gt;CLK&lt;/span&gt;&lt;/font&gt;" style="text;html=1;strokeColor=none;fillColor=none;align=center;verticalAlign=middle;whiteSpace=wrap;rounded=0;cloneable=0;" vertex="1" parent="1">
          <mxGeometry x="195" y="440" width="60" height="30" as="geometry" />
        </mxCell>
        <mxCell id="wMajJr2laUl4lp2nv1G8-32" value="&lt;font color=&quot;#000000&quot;&gt;&lt;span style=&quot;font-size: 13px;&quot;&gt;Deschidere_usa&lt;br&gt;&lt;/span&gt;&lt;/font&gt;" style="text;html=1;strokeColor=none;fillColor=none;align=center;verticalAlign=middle;whiteSpace=wrap;rounded=0;cloneable=0;" vertex="1" parent="1">
          <mxGeometry x="480" y="235" width="190" height="30" as="geometry" />
        </mxCell>
        <mxCell id="wMajJr2laUl4lp2nv1G8-33" value="&lt;font color=&quot;#000000&quot;&gt;&lt;span style=&quot;font-size: 13px;&quot;&gt;Usa_inchisa&lt;br&gt;&lt;/span&gt;&lt;/font&gt;" style="text;html=1;strokeColor=none;fillColor=none;align=center;verticalAlign=middle;whiteSpace=wrap;rounded=0;cloneable=0;" vertex="1" parent="1">
          <mxGeometry x="470" y="260" width="190" height="30" as="geometry" />
        </mxCell>
        <mxCell id="wMajJr2laUl4lp2nv1G8-34" value="&lt;font color=&quot;#000000&quot;&gt;&lt;span style=&quot;font-size: 13px;&quot;&gt;Mers_intre_etaje&lt;br&gt;&lt;/span&gt;&lt;/font&gt;" style="text;html=1;strokeColor=none;fillColor=none;align=center;verticalAlign=middle;whiteSpace=wrap;rounded=0;cloneable=0;" vertex="1" parent="1">
          <mxGeometry x="480" y="290" width="190" height="30" as="geometry" />
        </mxCell>
        <mxCell id="wMajJr2laUl4lp2nv1G8-35" value="&lt;font color=&quot;#000000&quot;&gt;&lt;span style=&quot;font-size: 13px;&quot;&gt;Ajungere_etaj&lt;br&gt;&lt;/span&gt;&lt;/font&gt;" style="text;html=1;strokeColor=none;fillColor=none;align=center;verticalAlign=middle;whiteSpace=wrap;rounded=0;cloneable=0;" vertex="1" parent="1">
          <mxGeometry x="470" y="320" width="190" height="30" as="geometry" />
        </mxCell>
        <mxCell id="wMajJr2laUl4lp2nv1G8-36" value="&lt;font color=&quot;#000000&quot;&gt;&lt;span style=&quot;font-size: 13px;&quot;&gt;Greutate_incorecta&lt;br&gt;&lt;/span&gt;&lt;/font&gt;" style="text;html=1;strokeColor=none;fillColor=none;align=center;verticalAlign=middle;whiteSpace=wrap;rounded=0;cloneable=0;" vertex="1" parent="1">
          <mxGeometry x="490" y="350" width="190" height="30" as="geometry" />
        </mxCell>
        <mxCell id="wMajJr2laUl4lp2nv1G8-37" value="&lt;font color=&quot;#000000&quot;&gt;&lt;span style=&quot;font-size: 13px;&quot;&gt;Persoana_in_usa&lt;br&gt;&lt;/span&gt;&lt;/font&gt;" style="text;html=1;strokeColor=none;fillColor=none;align=center;verticalAlign=middle;whiteSpace=wrap;rounded=0;cloneable=0;" vertex="1" parent="1">
          <mxGeometry x="480" y="380" width="190" height="30" as="geometry" />
        </mxCell>
        <mxCell id="wMajJr2laUl4lp2nv1G8-38" value="&lt;font color=&quot;#000000&quot;&gt;&lt;span style=&quot;font-size: 13px;&quot;&gt;Anozi&lt;br&gt;&lt;/span&gt;&lt;/font&gt;" style="text;html=1;strokeColor=none;fillColor=none;align=center;verticalAlign=middle;whiteSpace=wrap;rounded=0;cloneable=0;" vertex="1" parent="1">
          <mxGeometry x="470" y="410" width="190" height="30" as="geometry" />
        </mxCell>
        <mxCell id="wMajJr2laUl4lp2nv1G8-39" value="&lt;font color=&quot;#000000&quot;&gt;&lt;span style=&quot;font-size: 13px;&quot;&gt;Catozi&lt;br&gt;&lt;/span&gt;&lt;/font&gt;" style="text;html=1;strokeColor=none;fillColor=none;align=center;verticalAlign=middle;whiteSpace=wrap;rounded=0;cloneable=0;" vertex="1" parent="1">
          <mxGeometry x="470" y="440" width="190" height="30" as="geometry" />
        </mxCell>
        <mxCell id="wMajJr2laUl4lp2nv1G8-50" value="" style="endArrow=classic;html=1;rounded=0;fontColor=#000000;strokeColor=#000000;cloneable=0;" edge="1" parent="1">
          <mxGeometry width="50" height="50" relative="1" as="geometry">
            <mxPoint x="520" y="260" as="sourcePoint" />
            <mxPoint x="615" y="260" as="targetPoint" />
          </mxGeometry>
        </mxCell>
        <mxCell id="wMajJr2laUl4lp2nv1G8-51" value="" style="endArrow=classic;html=1;rounded=0;fontColor=#000000;strokeColor=#000000;cloneable=0;" edge="1" parent="1">
          <mxGeometry width="50" height="50" relative="1" as="geometry">
            <mxPoint x="520" y="290" as="sourcePoint" />
            <mxPoint x="615" y="290" as="targetPoint" />
          </mxGeometry>
        </mxCell>
        <mxCell id="wMajJr2laUl4lp2nv1G8-52" value="" style="endArrow=classic;html=1;rounded=0;fontColor=#000000;strokeColor=#000000;cloneable=0;" edge="1" parent="1">
          <mxGeometry width="50" height="50" relative="1" as="geometry">
            <mxPoint x="520" y="320" as="sourcePoint" />
            <mxPoint x="615" y="320" as="targetPoint" />
          </mxGeometry>
        </mxCell>
        <mxCell id="wMajJr2laUl4lp2nv1G8-53" value="" style="endArrow=classic;html=1;rounded=0;fontColor=#000000;strokeColor=#000000;cloneable=0;" edge="1" parent="1">
          <mxGeometry width="50" height="50" relative="1" as="geometry">
            <mxPoint x="520" y="350" as="sourcePoint" />
            <mxPoint x="615" y="350" as="targetPoint" />
          </mxGeometry>
        </mxCell>
        <mxCell id="wMajJr2laUl4lp2nv1G8-54" value="" style="endArrow=classic;html=1;rounded=0;fontColor=#000000;strokeColor=#000000;cloneable=0;" edge="1" parent="1">
          <mxGeometry width="50" height="50" relative="1" as="geometry">
            <mxPoint x="520" y="380" as="sourcePoint" />
            <mxPoint x="615" y="380" as="targetPoint" />
          </mxGeometry>
        </mxCell>
        <mxCell id="wMajJr2laUl4lp2nv1G8-55" value="" style="endArrow=classic;html=1;rounded=0;fontColor=#000000;strokeColor=#000000;cloneable=0;" edge="1" parent="1">
          <mxGeometry width="50" height="50" relative="1" as="geometry">
            <mxPoint x="520" y="410" as="sourcePoint" />
            <mxPoint x="615" y="410" as="targetPoint" />
          </mxGeometry>
        </mxCell>
        <mxCell id="wMajJr2laUl4lp2nv1G8-56" value="" style="endArrow=classic;html=1;rounded=0;fontColor=#000000;strokeColor=#000000;cloneable=0;" edge="1" parent="1">
          <mxGeometry width="50" height="50" relative="1" as="geometry">
            <mxPoint x="520" y="439.43" as="sourcePoint" />
            <mxPoint x="615" y="439.43" as="targetPoint" />
          </mxGeometry>
        </mxCell>
        <mxCell id="wMajJr2laUl4lp2nv1G8-57" value="" style="endArrow=classic;html=1;rounded=0;fontColor=#000000;strokeColor=#000000;cloneable=0;" edge="1" parent="1">
          <mxGeometry width="50" height="50" relative="1" as="geometry">
            <mxPoint x="520" y="470" as="sourcePoint" />
            <mxPoint x="615" y="470" as="targetPoint" />
          </mxGeometry>
        </mxCell>
      </root>
    </mxGraphModel>
  </diagram>
</mxfile>
